# xmcd
#
# Track frame offsets: 
#        150
#        16322
#        37230
#        59275
#        75195
#        96287
#        117042
#        141447
#        160210
#        180990
#        204625
#        218690
#
# Disc length: 3185 seconds
#
# Revision: 1
# Processed by: cddbd v1.5.2PL0 Copyright (c) Steve Scherf et al.
# Submitted via: ExactAudioCopyFreeDBPlugin 1.0
#
DISCID=9c0c6f0c
DTITLE=Rolling Stones - Steel Wheels
DYEAR=1989
DGENRE=Rock
TTITLE0=Sad Sad Sad
TTITLE1=Mixed Emotions
TTITLE2=Terrifying
TTITLE3=Hold On To Your Hat
TTITLE4=Hearts For Sale
TTITLE5=Blinded By Love
TTITLE6=Rock And A Hard Place
TTITLE7=Can't Be Seen
TTITLE8=Almost Hear You Sigh
TTITLE9=Continental Drift
TTITLE10=Break The Spell
TTITLE11=Slipping Away
EXTD=
EXTT0=
EXTT1=
EXTT2=
EXTT3=
EXTT4=
EXTT5=
EXTT6=
EXTT7=
EXTT8=
EXTT9=
EXTT10=
EXTT11=
PLAYORDER=
